%TF.GenerationSoftware,KiCad,Pcbnew,10.0.6*%
%TF.CreationDate,2026-09-25T12:58:26+02:00*%
%TF.ProjectId,22PinTo40Pin,32325069-6e54-46f3-9430-50696e2e6b69,rev?*%
%TF.SameCoordinates,Original*%
%TF.FileFunction,Other,Comment*%
%FSLAX46Y46*%
G04 Gerber Fmt 4.6, Leading zero omitted, Abs format (unit mm)*
G04 Created by KiCad (PCBNEW 10.0.6) date 2026-09-25 12:58:26*
%MOMM*%
%LPD*%
G01*
G04 APERTURE LIST*
%ADD10C,0.100000*%
G04 APERTURE END LIST*
D10*
X105724800Y-111093734D02*
X105772419Y-110950877D01*
X105772419Y-110950877D02*
X105772419Y-110712782D01*
X105772419Y-110712782D02*
X105724800Y-110617544D01*
X105724800Y-110617544D02*
X105677180Y-110569925D01*
X105677180Y-110569925D02*
X105581942Y-110522306D01*
X105581942Y-110522306D02*
X105486704Y-110522306D01*
X105486704Y-110522306D02*
X105391466Y-110569925D01*
X105391466Y-110569925D02*
X105343847Y-110617544D01*
X105343847Y-110617544D02*
X105296228Y-110712782D01*
X105296228Y-110712782D02*
X105248609Y-110903258D01*
X105248609Y-110903258D02*
X105200990Y-110998496D01*
X105200990Y-110998496D02*
X105153371Y-111046115D01*
X105153371Y-111046115D02*
X105058133Y-111093734D01*
X105058133Y-111093734D02*
X104962895Y-111093734D01*
X104962895Y-111093734D02*
X104867657Y-111046115D01*
X104867657Y-111046115D02*
X104820038Y-110998496D01*
X104820038Y-110998496D02*
X104772419Y-110903258D01*
X104772419Y-110903258D02*
X104772419Y-110665163D01*
X104772419Y-110665163D02*
X104820038Y-110522306D01*
X105105752Y-110236591D02*
X105105752Y-109855639D01*
X104772419Y-110093734D02*
X105629561Y-110093734D01*
X105629561Y-110093734D02*
X105724800Y-110046115D01*
X105724800Y-110046115D02*
X105772419Y-109950877D01*
X105772419Y-109950877D02*
X105772419Y-109855639D01*
X105772419Y-109522305D02*
X105105752Y-109522305D01*
X104772419Y-109522305D02*
X104820038Y-109569924D01*
X104820038Y-109569924D02*
X104867657Y-109522305D01*
X104867657Y-109522305D02*
X104820038Y-109474686D01*
X104820038Y-109474686D02*
X104772419Y-109522305D01*
X104772419Y-109522305D02*
X104867657Y-109522305D01*
X105105752Y-109188972D02*
X105105752Y-108808020D01*
X105772419Y-109046115D02*
X104915276Y-109046115D01*
X104915276Y-109046115D02*
X104820038Y-108998496D01*
X104820038Y-108998496D02*
X104772419Y-108903258D01*
X104772419Y-108903258D02*
X104772419Y-108808020D01*
X105105752Y-108617543D02*
X105105752Y-108236591D01*
X105772419Y-108474686D02*
X104915276Y-108474686D01*
X104915276Y-108474686D02*
X104820038Y-108427067D01*
X104820038Y-108427067D02*
X104772419Y-108331829D01*
X104772419Y-108331829D02*
X104772419Y-108236591D01*
X105724800Y-107522305D02*
X105772419Y-107617543D01*
X105772419Y-107617543D02*
X105772419Y-107808019D01*
X105772419Y-107808019D02*
X105724800Y-107903257D01*
X105724800Y-107903257D02*
X105629561Y-107950876D01*
X105629561Y-107950876D02*
X105248609Y-107950876D01*
X105248609Y-107950876D02*
X105153371Y-107903257D01*
X105153371Y-107903257D02*
X105105752Y-107808019D01*
X105105752Y-107808019D02*
X105105752Y-107617543D01*
X105105752Y-107617543D02*
X105153371Y-107522305D01*
X105153371Y-107522305D02*
X105248609Y-107474686D01*
X105248609Y-107474686D02*
X105343847Y-107474686D01*
X105343847Y-107474686D02*
X105439085Y-107950876D01*
X105105752Y-107046114D02*
X105772419Y-107046114D01*
X105200990Y-107046114D02*
X105153371Y-106998495D01*
X105153371Y-106998495D02*
X105105752Y-106903257D01*
X105105752Y-106903257D02*
X105105752Y-106760400D01*
X105105752Y-106760400D02*
X105153371Y-106665162D01*
X105153371Y-106665162D02*
X105248609Y-106617543D01*
X105248609Y-106617543D02*
X105772419Y-106617543D01*
X105724800Y-105760400D02*
X105772419Y-105855638D01*
X105772419Y-105855638D02*
X105772419Y-106046114D01*
X105772419Y-106046114D02*
X105724800Y-106141352D01*
X105724800Y-106141352D02*
X105629561Y-106188971D01*
X105629561Y-106188971D02*
X105248609Y-106188971D01*
X105248609Y-106188971D02*
X105153371Y-106141352D01*
X105153371Y-106141352D02*
X105105752Y-106046114D01*
X105105752Y-106046114D02*
X105105752Y-105855638D01*
X105105752Y-105855638D02*
X105153371Y-105760400D01*
X105153371Y-105760400D02*
X105248609Y-105712781D01*
X105248609Y-105712781D02*
X105343847Y-105712781D01*
X105343847Y-105712781D02*
X105439085Y-106188971D01*
X105772419Y-105284209D02*
X105105752Y-105284209D01*
X105296228Y-105284209D02*
X105200990Y-105236590D01*
X105200990Y-105236590D02*
X105153371Y-105188971D01*
X105153371Y-105188971D02*
X105105752Y-105093733D01*
X105105752Y-105093733D02*
X105105752Y-104998495D01*
X203374800Y-110893734D02*
X203422419Y-110750877D01*
X203422419Y-110750877D02*
X203422419Y-110512782D01*
X203422419Y-110512782D02*
X203374800Y-110417544D01*
X203374800Y-110417544D02*
X203327180Y-110369925D01*
X203327180Y-110369925D02*
X203231942Y-110322306D01*
X203231942Y-110322306D02*
X203136704Y-110322306D01*
X203136704Y-110322306D02*
X203041466Y-110369925D01*
X203041466Y-110369925D02*
X202993847Y-110417544D01*
X202993847Y-110417544D02*
X202946228Y-110512782D01*
X202946228Y-110512782D02*
X202898609Y-110703258D01*
X202898609Y-110703258D02*
X202850990Y-110798496D01*
X202850990Y-110798496D02*
X202803371Y-110846115D01*
X202803371Y-110846115D02*
X202708133Y-110893734D01*
X202708133Y-110893734D02*
X202612895Y-110893734D01*
X202612895Y-110893734D02*
X202517657Y-110846115D01*
X202517657Y-110846115D02*
X202470038Y-110798496D01*
X202470038Y-110798496D02*
X202422419Y-110703258D01*
X202422419Y-110703258D02*
X202422419Y-110465163D01*
X202422419Y-110465163D02*
X202470038Y-110322306D01*
X202755752Y-110036591D02*
X202755752Y-109655639D01*
X202422419Y-109893734D02*
X203279561Y-109893734D01*
X203279561Y-109893734D02*
X203374800Y-109846115D01*
X203374800Y-109846115D02*
X203422419Y-109750877D01*
X203422419Y-109750877D02*
X203422419Y-109655639D01*
X203422419Y-109322305D02*
X202755752Y-109322305D01*
X202422419Y-109322305D02*
X202470038Y-109369924D01*
X202470038Y-109369924D02*
X202517657Y-109322305D01*
X202517657Y-109322305D02*
X202470038Y-109274686D01*
X202470038Y-109274686D02*
X202422419Y-109322305D01*
X202422419Y-109322305D02*
X202517657Y-109322305D01*
X202755752Y-108988972D02*
X202755752Y-108608020D01*
X203422419Y-108846115D02*
X202565276Y-108846115D01*
X202565276Y-108846115D02*
X202470038Y-108798496D01*
X202470038Y-108798496D02*
X202422419Y-108703258D01*
X202422419Y-108703258D02*
X202422419Y-108608020D01*
X202755752Y-108417543D02*
X202755752Y-108036591D01*
X203422419Y-108274686D02*
X202565276Y-108274686D01*
X202565276Y-108274686D02*
X202470038Y-108227067D01*
X202470038Y-108227067D02*
X202422419Y-108131829D01*
X202422419Y-108131829D02*
X202422419Y-108036591D01*
X203374800Y-107322305D02*
X203422419Y-107417543D01*
X203422419Y-107417543D02*
X203422419Y-107608019D01*
X203422419Y-107608019D02*
X203374800Y-107703257D01*
X203374800Y-107703257D02*
X203279561Y-107750876D01*
X203279561Y-107750876D02*
X202898609Y-107750876D01*
X202898609Y-107750876D02*
X202803371Y-107703257D01*
X202803371Y-107703257D02*
X202755752Y-107608019D01*
X202755752Y-107608019D02*
X202755752Y-107417543D01*
X202755752Y-107417543D02*
X202803371Y-107322305D01*
X202803371Y-107322305D02*
X202898609Y-107274686D01*
X202898609Y-107274686D02*
X202993847Y-107274686D01*
X202993847Y-107274686D02*
X203089085Y-107750876D01*
X202755752Y-106846114D02*
X203422419Y-106846114D01*
X202850990Y-106846114D02*
X202803371Y-106798495D01*
X202803371Y-106798495D02*
X202755752Y-106703257D01*
X202755752Y-106703257D02*
X202755752Y-106560400D01*
X202755752Y-106560400D02*
X202803371Y-106465162D01*
X202803371Y-106465162D02*
X202898609Y-106417543D01*
X202898609Y-106417543D02*
X203422419Y-106417543D01*
X203374800Y-105560400D02*
X203422419Y-105655638D01*
X203422419Y-105655638D02*
X203422419Y-105846114D01*
X203422419Y-105846114D02*
X203374800Y-105941352D01*
X203374800Y-105941352D02*
X203279561Y-105988971D01*
X203279561Y-105988971D02*
X202898609Y-105988971D01*
X202898609Y-105988971D02*
X202803371Y-105941352D01*
X202803371Y-105941352D02*
X202755752Y-105846114D01*
X202755752Y-105846114D02*
X202755752Y-105655638D01*
X202755752Y-105655638D02*
X202803371Y-105560400D01*
X202803371Y-105560400D02*
X202898609Y-105512781D01*
X202898609Y-105512781D02*
X202993847Y-105512781D01*
X202993847Y-105512781D02*
X203089085Y-105988971D01*
X203422419Y-105084209D02*
X202755752Y-105084209D01*
X202946228Y-105084209D02*
X202850990Y-105036590D01*
X202850990Y-105036590D02*
X202803371Y-104988971D01*
X202803371Y-104988971D02*
X202755752Y-104893733D01*
X202755752Y-104893733D02*
X202755752Y-104798495D01*
X190945238Y-95707419D02*
X190373810Y-95707419D01*
X190659524Y-95707419D02*
X190659524Y-94707419D01*
X190659524Y-94707419D02*
X190564286Y-94850276D01*
X190564286Y-94850276D02*
X190469048Y-94945514D01*
X190469048Y-94945514D02*
X190373810Y-94993133D01*
X191802381Y-94707419D02*
X191611905Y-94707419D01*
X191611905Y-94707419D02*
X191516667Y-94755038D01*
X191516667Y-94755038D02*
X191469048Y-94802657D01*
X191469048Y-94802657D02*
X191373810Y-94945514D01*
X191373810Y-94945514D02*
X191326191Y-95135990D01*
X191326191Y-95135990D02*
X191326191Y-95516942D01*
X191326191Y-95516942D02*
X191373810Y-95612180D01*
X191373810Y-95612180D02*
X191421429Y-95659800D01*
X191421429Y-95659800D02*
X191516667Y-95707419D01*
X191516667Y-95707419D02*
X191707143Y-95707419D01*
X191707143Y-95707419D02*
X191802381Y-95659800D01*
X191802381Y-95659800D02*
X191850000Y-95612180D01*
X191850000Y-95612180D02*
X191897619Y-95516942D01*
X191897619Y-95516942D02*
X191897619Y-95278847D01*
X191897619Y-95278847D02*
X191850000Y-95183609D01*
X191850000Y-95183609D02*
X191802381Y-95135990D01*
X191802381Y-95135990D02*
X191707143Y-95088371D01*
X191707143Y-95088371D02*
X191516667Y-95088371D01*
X191516667Y-95088371D02*
X191421429Y-95135990D01*
X191421429Y-95135990D02*
X191373810Y-95183609D01*
X191373810Y-95183609D02*
X191326191Y-95278847D01*
X192326191Y-95612180D02*
X192373810Y-95659800D01*
X192373810Y-95659800D02*
X192326191Y-95707419D01*
X192326191Y-95707419D02*
X192278572Y-95659800D01*
X192278572Y-95659800D02*
X192326191Y-95612180D01*
X192326191Y-95612180D02*
X192326191Y-95707419D01*
X192707143Y-94707419D02*
X193326190Y-94707419D01*
X193326190Y-94707419D02*
X192992857Y-95088371D01*
X192992857Y-95088371D02*
X193135714Y-95088371D01*
X193135714Y-95088371D02*
X193230952Y-95135990D01*
X193230952Y-95135990D02*
X193278571Y-95183609D01*
X193278571Y-95183609D02*
X193326190Y-95278847D01*
X193326190Y-95278847D02*
X193326190Y-95516942D01*
X193326190Y-95516942D02*
X193278571Y-95612180D01*
X193278571Y-95612180D02*
X193230952Y-95659800D01*
X193230952Y-95659800D02*
X193135714Y-95707419D01*
X193135714Y-95707419D02*
X192850000Y-95707419D01*
X192850000Y-95707419D02*
X192754762Y-95659800D01*
X192754762Y-95659800D02*
X192707143Y-95612180D01*
X183200000Y-100000000D02*
X183200000Y-96663580D01*
X199500000Y-100000000D02*
X199500000Y-96663580D01*
X183200000Y-97250000D02*
X199500000Y-97250000D01*
X183200000Y-97250000D02*
X184326504Y-96663579D01*
X183200000Y-97250000D02*
X184326504Y-97836421D01*
X199500000Y-97250000D02*
X198373496Y-97836421D01*
X199500000Y-97250000D02*
X198373496Y-96663579D01*
X110025000Y-96857419D02*
X109834524Y-96857419D01*
X109834524Y-96857419D02*
X109739286Y-96905038D01*
X109739286Y-96905038D02*
X109691667Y-96952657D01*
X109691667Y-96952657D02*
X109596429Y-97095514D01*
X109596429Y-97095514D02*
X109548810Y-97285990D01*
X109548810Y-97285990D02*
X109548810Y-97666942D01*
X109548810Y-97666942D02*
X109596429Y-97762180D01*
X109596429Y-97762180D02*
X109644048Y-97809800D01*
X109644048Y-97809800D02*
X109739286Y-97857419D01*
X109739286Y-97857419D02*
X109929762Y-97857419D01*
X109929762Y-97857419D02*
X110025000Y-97809800D01*
X110025000Y-97809800D02*
X110072619Y-97762180D01*
X110072619Y-97762180D02*
X110120238Y-97666942D01*
X110120238Y-97666942D02*
X110120238Y-97428847D01*
X110120238Y-97428847D02*
X110072619Y-97333609D01*
X110072619Y-97333609D02*
X110025000Y-97285990D01*
X110025000Y-97285990D02*
X109929762Y-97238371D01*
X109929762Y-97238371D02*
X109739286Y-97238371D01*
X109739286Y-97238371D02*
X109644048Y-97285990D01*
X109644048Y-97285990D02*
X109596429Y-97333609D01*
X109596429Y-97333609D02*
X109548810Y-97428847D01*
X110548810Y-97762180D02*
X110596429Y-97809800D01*
X110596429Y-97809800D02*
X110548810Y-97857419D01*
X110548810Y-97857419D02*
X110501191Y-97809800D01*
X110501191Y-97809800D02*
X110548810Y-97762180D01*
X110548810Y-97762180D02*
X110548810Y-97857419D01*
X111072619Y-97857419D02*
X111263095Y-97857419D01*
X111263095Y-97857419D02*
X111358333Y-97809800D01*
X111358333Y-97809800D02*
X111405952Y-97762180D01*
X111405952Y-97762180D02*
X111501190Y-97619323D01*
X111501190Y-97619323D02*
X111548809Y-97428847D01*
X111548809Y-97428847D02*
X111548809Y-97047895D01*
X111548809Y-97047895D02*
X111501190Y-96952657D01*
X111501190Y-96952657D02*
X111453571Y-96905038D01*
X111453571Y-96905038D02*
X111358333Y-96857419D01*
X111358333Y-96857419D02*
X111167857Y-96857419D01*
X111167857Y-96857419D02*
X111072619Y-96905038D01*
X111072619Y-96905038D02*
X111025000Y-96952657D01*
X111025000Y-96952657D02*
X110977381Y-97047895D01*
X110977381Y-97047895D02*
X110977381Y-97285990D01*
X110977381Y-97285990D02*
X111025000Y-97381228D01*
X111025000Y-97381228D02*
X111072619Y-97428847D01*
X111072619Y-97428847D02*
X111167857Y-97476466D01*
X111167857Y-97476466D02*
X111358333Y-97476466D01*
X111358333Y-97476466D02*
X111453571Y-97428847D01*
X111453571Y-97428847D02*
X111501190Y-97381228D01*
X111501190Y-97381228D02*
X111548809Y-97285990D01*
X112453571Y-96857419D02*
X111977381Y-96857419D01*
X111977381Y-96857419D02*
X111929762Y-97333609D01*
X111929762Y-97333609D02*
X111977381Y-97285990D01*
X111977381Y-97285990D02*
X112072619Y-97238371D01*
X112072619Y-97238371D02*
X112310714Y-97238371D01*
X112310714Y-97238371D02*
X112405952Y-97285990D01*
X112405952Y-97285990D02*
X112453571Y-97333609D01*
X112453571Y-97333609D02*
X112501190Y-97428847D01*
X112501190Y-97428847D02*
X112501190Y-97666942D01*
X112501190Y-97666942D02*
X112453571Y-97762180D01*
X112453571Y-97762180D02*
X112405952Y-97809800D01*
X112405952Y-97809800D02*
X112310714Y-97857419D01*
X112310714Y-97857419D02*
X112072619Y-97857419D01*
X112072619Y-97857419D02*
X111977381Y-97809800D01*
X111977381Y-97809800D02*
X111929762Y-97762180D01*
X107550000Y-101950000D02*
X107550000Y-97913580D01*
X114500000Y-101950000D02*
X114500000Y-97913580D01*
X107550000Y-98500000D02*
X114500000Y-98500000D01*
X107550000Y-98500000D02*
X108676504Y-97913579D01*
X107550000Y-98500000D02*
X108676504Y-99086421D01*
X114500000Y-98500000D02*
X113373496Y-99086421D01*
X114500000Y-98500000D02*
X113373496Y-97913579D01*
X102157419Y-109355952D02*
X102157419Y-109927380D01*
X102157419Y-109641666D02*
X101157419Y-109641666D01*
X101157419Y-109641666D02*
X101300276Y-109736904D01*
X101300276Y-109736904D02*
X101395514Y-109832142D01*
X101395514Y-109832142D02*
X101443133Y-109927380D01*
X102157419Y-108403571D02*
X102157419Y-108974999D01*
X102157419Y-108689285D02*
X101157419Y-108689285D01*
X101157419Y-108689285D02*
X101300276Y-108784523D01*
X101300276Y-108784523D02*
X101395514Y-108879761D01*
X101395514Y-108879761D02*
X101443133Y-108974999D01*
X102062180Y-107974999D02*
X102109800Y-107927380D01*
X102109800Y-107927380D02*
X102157419Y-107974999D01*
X102157419Y-107974999D02*
X102109800Y-108022618D01*
X102109800Y-108022618D02*
X102062180Y-107974999D01*
X102062180Y-107974999D02*
X102157419Y-107974999D01*
X101157419Y-107308333D02*
X101157419Y-107213095D01*
X101157419Y-107213095D02*
X101205038Y-107117857D01*
X101205038Y-107117857D02*
X101252657Y-107070238D01*
X101252657Y-107070238D02*
X101347895Y-107022619D01*
X101347895Y-107022619D02*
X101538371Y-106975000D01*
X101538371Y-106975000D02*
X101776466Y-106975000D01*
X101776466Y-106975000D02*
X101966942Y-107022619D01*
X101966942Y-107022619D02*
X102062180Y-107070238D01*
X102062180Y-107070238D02*
X102109800Y-107117857D01*
X102109800Y-107117857D02*
X102157419Y-107213095D01*
X102157419Y-107213095D02*
X102157419Y-107308333D01*
X102157419Y-107308333D02*
X102109800Y-107403571D01*
X102109800Y-107403571D02*
X102062180Y-107451190D01*
X102062180Y-107451190D02*
X101966942Y-107498809D01*
X101966942Y-107498809D02*
X101776466Y-107546428D01*
X101776466Y-107546428D02*
X101538371Y-107546428D01*
X101538371Y-107546428D02*
X101347895Y-107498809D01*
X101347895Y-107498809D02*
X101252657Y-107451190D01*
X101252657Y-107451190D02*
X101205038Y-107403571D01*
X101205038Y-107403571D02*
X101157419Y-107308333D01*
X101157419Y-106070238D02*
X101157419Y-106546428D01*
X101157419Y-106546428D02*
X101633609Y-106594047D01*
X101633609Y-106594047D02*
X101585990Y-106546428D01*
X101585990Y-106546428D02*
X101538371Y-106451190D01*
X101538371Y-106451190D02*
X101538371Y-106213095D01*
X101538371Y-106213095D02*
X101585990Y-106117857D01*
X101585990Y-106117857D02*
X101633609Y-106070238D01*
X101633609Y-106070238D02*
X101728847Y-106022619D01*
X101728847Y-106022619D02*
X101966942Y-106022619D01*
X101966942Y-106022619D02*
X102062180Y-106070238D01*
X102062180Y-106070238D02*
X102109800Y-106117857D01*
X102109800Y-106117857D02*
X102157419Y-106213095D01*
X102157419Y-106213095D02*
X102157419Y-106451190D01*
X102157419Y-106451190D02*
X102109800Y-106546428D01*
X102109800Y-106546428D02*
X102062180Y-106594047D01*
X107050000Y-102450000D02*
X102213580Y-102450000D01*
X107050000Y-113500000D02*
X102213580Y-113500000D01*
X102800000Y-102450000D02*
X102800000Y-113500000D01*
X102800000Y-102450000D02*
X103386421Y-103576504D01*
X102800000Y-102450000D02*
X102213579Y-103576504D01*
X102800000Y-113500000D02*
X102213579Y-112373496D01*
X102800000Y-113500000D02*
X103386421Y-112373496D01*
X206807419Y-108190476D02*
X206807419Y-108761904D01*
X206807419Y-108476190D02*
X205807419Y-108476190D01*
X205807419Y-108476190D02*
X205950276Y-108571428D01*
X205950276Y-108571428D02*
X206045514Y-108666666D01*
X206045514Y-108666666D02*
X206093133Y-108761904D01*
X205807419Y-107285714D02*
X205807419Y-107761904D01*
X205807419Y-107761904D02*
X206283609Y-107809523D01*
X206283609Y-107809523D02*
X206235990Y-107761904D01*
X206235990Y-107761904D02*
X206188371Y-107666666D01*
X206188371Y-107666666D02*
X206188371Y-107428571D01*
X206188371Y-107428571D02*
X206235990Y-107333333D01*
X206235990Y-107333333D02*
X206283609Y-107285714D01*
X206283609Y-107285714D02*
X206378847Y-107238095D01*
X206378847Y-107238095D02*
X206616942Y-107238095D01*
X206616942Y-107238095D02*
X206712180Y-107285714D01*
X206712180Y-107285714D02*
X206759800Y-107333333D01*
X206759800Y-107333333D02*
X206807419Y-107428571D01*
X206807419Y-107428571D02*
X206807419Y-107666666D01*
X206807419Y-107666666D02*
X206759800Y-107761904D01*
X206759800Y-107761904D02*
X206712180Y-107809523D01*
X200000000Y-100500000D02*
X208036420Y-100500000D01*
X200000000Y-115500000D02*
X208036420Y-115500000D01*
X207450000Y-100500000D02*
X207450000Y-115500000D01*
X207450000Y-100500000D02*
X208036421Y-101626504D01*
X207450000Y-100500000D02*
X206863579Y-101626504D01*
X207450000Y-115500000D02*
X206863579Y-114373496D01*
X207450000Y-115500000D02*
X208036421Y-114373496D01*
X143748809Y-96007419D02*
X143558333Y-96007419D01*
X143558333Y-96007419D02*
X143463095Y-96055038D01*
X143463095Y-96055038D02*
X143415476Y-96102657D01*
X143415476Y-96102657D02*
X143320238Y-96245514D01*
X143320238Y-96245514D02*
X143272619Y-96435990D01*
X143272619Y-96435990D02*
X143272619Y-96816942D01*
X143272619Y-96816942D02*
X143320238Y-96912180D01*
X143320238Y-96912180D02*
X143367857Y-96959800D01*
X143367857Y-96959800D02*
X143463095Y-97007419D01*
X143463095Y-97007419D02*
X143653571Y-97007419D01*
X143653571Y-97007419D02*
X143748809Y-96959800D01*
X143748809Y-96959800D02*
X143796428Y-96912180D01*
X143796428Y-96912180D02*
X143844047Y-96816942D01*
X143844047Y-96816942D02*
X143844047Y-96578847D01*
X143844047Y-96578847D02*
X143796428Y-96483609D01*
X143796428Y-96483609D02*
X143748809Y-96435990D01*
X143748809Y-96435990D02*
X143653571Y-96388371D01*
X143653571Y-96388371D02*
X143463095Y-96388371D01*
X143463095Y-96388371D02*
X143367857Y-96435990D01*
X143367857Y-96435990D02*
X143320238Y-96483609D01*
X143320238Y-96483609D02*
X143272619Y-96578847D01*
X144463095Y-96007419D02*
X144558333Y-96007419D01*
X144558333Y-96007419D02*
X144653571Y-96055038D01*
X144653571Y-96055038D02*
X144701190Y-96102657D01*
X144701190Y-96102657D02*
X144748809Y-96197895D01*
X144748809Y-96197895D02*
X144796428Y-96388371D01*
X144796428Y-96388371D02*
X144796428Y-96626466D01*
X144796428Y-96626466D02*
X144748809Y-96816942D01*
X144748809Y-96816942D02*
X144701190Y-96912180D01*
X144701190Y-96912180D02*
X144653571Y-96959800D01*
X144653571Y-96959800D02*
X144558333Y-97007419D01*
X144558333Y-97007419D02*
X144463095Y-97007419D01*
X144463095Y-97007419D02*
X144367857Y-96959800D01*
X144367857Y-96959800D02*
X144320238Y-96912180D01*
X144320238Y-96912180D02*
X144272619Y-96816942D01*
X144272619Y-96816942D02*
X144225000Y-96626466D01*
X144225000Y-96626466D02*
X144225000Y-96388371D01*
X144225000Y-96388371D02*
X144272619Y-96197895D01*
X144272619Y-96197895D02*
X144320238Y-96102657D01*
X144320238Y-96102657D02*
X144367857Y-96055038D01*
X144367857Y-96055038D02*
X144463095Y-96007419D01*
X145225000Y-96912180D02*
X145272619Y-96959800D01*
X145272619Y-96959800D02*
X145225000Y-97007419D01*
X145225000Y-97007419D02*
X145177381Y-96959800D01*
X145177381Y-96959800D02*
X145225000Y-96912180D01*
X145225000Y-96912180D02*
X145225000Y-97007419D01*
X146177380Y-96007419D02*
X145701190Y-96007419D01*
X145701190Y-96007419D02*
X145653571Y-96483609D01*
X145653571Y-96483609D02*
X145701190Y-96435990D01*
X145701190Y-96435990D02*
X145796428Y-96388371D01*
X145796428Y-96388371D02*
X146034523Y-96388371D01*
X146034523Y-96388371D02*
X146129761Y-96435990D01*
X146129761Y-96435990D02*
X146177380Y-96483609D01*
X146177380Y-96483609D02*
X146224999Y-96578847D01*
X146224999Y-96578847D02*
X146224999Y-96816942D01*
X146224999Y-96816942D02*
X146177380Y-96912180D01*
X146177380Y-96912180D02*
X146129761Y-96959800D01*
X146129761Y-96959800D02*
X146034523Y-97007419D01*
X146034523Y-97007419D02*
X145796428Y-97007419D01*
X145796428Y-97007419D02*
X145701190Y-96959800D01*
X145701190Y-96959800D02*
X145653571Y-96912180D01*
X147129761Y-96007419D02*
X146653571Y-96007419D01*
X146653571Y-96007419D02*
X146605952Y-96483609D01*
X146605952Y-96483609D02*
X146653571Y-96435990D01*
X146653571Y-96435990D02*
X146748809Y-96388371D01*
X146748809Y-96388371D02*
X146986904Y-96388371D01*
X146986904Y-96388371D02*
X147082142Y-96435990D01*
X147082142Y-96435990D02*
X147129761Y-96483609D01*
X147129761Y-96483609D02*
X147177380Y-96578847D01*
X147177380Y-96578847D02*
X147177380Y-96816942D01*
X147177380Y-96816942D02*
X147129761Y-96912180D01*
X147129761Y-96912180D02*
X147082142Y-96959800D01*
X147082142Y-96959800D02*
X146986904Y-97007419D01*
X146986904Y-97007419D02*
X146748809Y-97007419D01*
X146748809Y-97007419D02*
X146653571Y-96959800D01*
X146653571Y-96959800D02*
X146605952Y-96912180D01*
X114950000Y-101500000D02*
X114950000Y-97063580D01*
X175500000Y-101500000D02*
X175500000Y-97063580D01*
X114950000Y-97650000D02*
X175500000Y-97650000D01*
X114950000Y-97650000D02*
X116076504Y-97063579D01*
X114950000Y-97650000D02*
X116076504Y-98236421D01*
X175500000Y-97650000D02*
X174373496Y-98236421D01*
X175500000Y-97650000D02*
X174373496Y-97063579D01*
M02*
