%TF.GenerationSoftware,KiCad,Pcbnew,10.0.6*%
%TF.CreationDate,2026-09-25T12:58:26+02:00*%
%TF.ProjectId,22PinTo40Pin,32325069-6e54-46f3-9430-50696e2e6b69,rev?*%
%TF.SameCoordinates,Original*%
%TF.FileFunction,OtherDrawing,Comment*%
%FSLAX46Y46*%
G04 Gerber Fmt 4.6, Leading zero omitted, Abs format (unit mm)*
G04 Created by KiCad (PCBNEW 10.0.6) date 2026-09-25 12:58:26*
%MOMM*%
%LPD*%
G01*
G04 APERTURE LIST*
%ADD10C,0.100000*%
%ADD11C,0.000000*%
G04 APERTURE END LIST*
D10*
G36*
X135791365Y-107996791D02*
G01*
X136085799Y-107978290D01*
X136095222Y-108025485D01*
X136108455Y-108061259D01*
X136124756Y-108087894D01*
X136150826Y-108114268D01*
X136181579Y-108133087D01*
X136217950Y-108144770D01*
X136261349Y-108148893D01*
X136304502Y-108145010D01*
X136337807Y-108134413D01*
X136363443Y-108117997D01*
X136383919Y-108095543D01*
X136395510Y-108071947D01*
X136399346Y-108046372D01*
X136395725Y-108022014D01*
X136384720Y-107999169D01*
X136365213Y-107977069D01*
X136339568Y-107960519D01*
X136290487Y-107941239D01*
X136206700Y-107919366D01*
X136101612Y-107891458D01*
X136021000Y-107861513D01*
X135960533Y-107830313D01*
X135916417Y-107798344D01*
X135877860Y-107757589D01*
X135850909Y-107712604D01*
X135834598Y-107662476D01*
X135828978Y-107605819D01*
X135833881Y-107555862D01*
X135848609Y-107507718D01*
X135873736Y-107460556D01*
X135907497Y-107419289D01*
X135951770Y-107383496D01*
X136008313Y-107353089D01*
X136069595Y-107332782D01*
X136150177Y-107319064D01*
X136254571Y-107313949D01*
X136352667Y-107319295D01*
X136432130Y-107333982D01*
X136496093Y-107356391D01*
X136547235Y-107385512D01*
X136591072Y-107424911D01*
X136625692Y-107474629D01*
X136651322Y-107536529D01*
X136667158Y-107613269D01*
X136375471Y-107630488D01*
X136363974Y-107586717D01*
X136347500Y-107554515D01*
X136326623Y-107531386D01*
X136300126Y-107514854D01*
X136266496Y-107504273D01*
X136223797Y-107500429D01*
X136174255Y-107506767D01*
X136142464Y-107523204D01*
X136121841Y-107548703D01*
X136115170Y-107578525D01*
X136120485Y-107600475D01*
X136137701Y-107621268D01*
X136167819Y-107637798D01*
X136241565Y-107657965D01*
X136377723Y-107690774D01*
X136471279Y-107720123D01*
X136532214Y-107746015D01*
X136587548Y-107779612D01*
X136629436Y-107816430D01*
X136659953Y-107856535D01*
X136682058Y-107901964D01*
X136695399Y-107950862D01*
X136699948Y-108004118D01*
X136694009Y-108066488D01*
X136676370Y-108125096D01*
X136646642Y-108181011D01*
X136606850Y-108230216D01*
X136557625Y-108271006D01*
X136497715Y-108303804D01*
X136432602Y-108325985D01*
X136353142Y-108340414D01*
X136256586Y-108345631D01*
X136147954Y-108340480D01*
X136061893Y-108326496D01*
X135994504Y-108305524D01*
X135942386Y-108278857D01*
X135902739Y-108247140D01*
X135859260Y-108195095D01*
X135826356Y-108136749D01*
X135803632Y-108071102D01*
X135791365Y-107996791D01*
G37*
G36*
X136854859Y-107329581D02*
G01*
X137684186Y-107329581D01*
X137684186Y-107544515D01*
X137164986Y-107544515D01*
X137164986Y-107704738D01*
X137646572Y-107704738D01*
X137646572Y-107907948D01*
X137164986Y-107907948D01*
X137164986Y-108103342D01*
X137699207Y-108103342D01*
X137699207Y-108330000D01*
X136854859Y-108330000D01*
X136854859Y-107329581D01*
G37*
G36*
X138481973Y-107332903D02*
G01*
X138553388Y-107341629D01*
X138604859Y-107354127D01*
X138652186Y-107375182D01*
X138692640Y-107405288D01*
X138727103Y-107445230D01*
X138752417Y-107491568D01*
X138768082Y-107545035D01*
X138773570Y-107607285D01*
X138769369Y-107661813D01*
X138757360Y-107709286D01*
X138738033Y-107750900D01*
X138711530Y-107788453D01*
X138679165Y-107820966D01*
X138640396Y-107848780D01*
X138596463Y-107869488D01*
X138531769Y-107888347D01*
X138582799Y-107908415D01*
X138612370Y-107925472D01*
X138630558Y-107941970D01*
X138661890Y-107978351D01*
X138705304Y-108040877D01*
X138854903Y-108330000D01*
X138505147Y-108330000D01*
X138339795Y-108023963D01*
X138307193Y-107971039D01*
X138283802Y-107946782D01*
X138248301Y-107929438D01*
X138207964Y-107923579D01*
X138180670Y-107923579D01*
X138180670Y-108330000D01*
X137869810Y-108330000D01*
X137869810Y-107736001D01*
X138180670Y-107736001D01*
X138311157Y-107736001D01*
X138393101Y-107722384D01*
X138420951Y-107711488D01*
X138443292Y-107690999D01*
X138457868Y-107664001D01*
X138462771Y-107633053D01*
X138459073Y-107602191D01*
X138448744Y-107577941D01*
X138431996Y-107558742D01*
X138409609Y-107545859D01*
X138373098Y-107536528D01*
X138316592Y-107532791D01*
X138180670Y-107532791D01*
X138180670Y-107736001D01*
X137869810Y-107736001D01*
X137869810Y-107329581D01*
X138385590Y-107329581D01*
X138481973Y-107332903D01*
G37*
G36*
X139943249Y-108330000D02*
G01*
X139619444Y-108330000D01*
X139570229Y-108165868D01*
X139217787Y-108165868D01*
X139169243Y-108330000D01*
X138852949Y-108330000D01*
X138995584Y-107950935D01*
X139284709Y-107950935D01*
X139505321Y-107950935D01*
X139394679Y-107589883D01*
X139284709Y-107950935D01*
X138995584Y-107950935D01*
X139229388Y-107329581D01*
X139566810Y-107329581D01*
X139943249Y-108330000D01*
G37*
G36*
X140038992Y-107329581D02*
G01*
X140446145Y-107329581D01*
X140603254Y-107937868D01*
X140759692Y-107329581D01*
X141165440Y-107329581D01*
X141165440Y-108330000D01*
X140912710Y-108330000D01*
X140912710Y-107566252D01*
X140716644Y-108330000D01*
X140487788Y-108330000D01*
X140292455Y-107566252D01*
X140292455Y-108330000D01*
X140038992Y-108330000D01*
X140038992Y-107329581D01*
G37*
G36*
X141375611Y-107329581D02*
G01*
X141685738Y-107329581D01*
X141685738Y-108330000D01*
X141375611Y-108330000D01*
X141375611Y-107329581D01*
G37*
G36*
X141837108Y-107329581D02*
G01*
X142777748Y-107329581D01*
X142777748Y-107575778D01*
X142462125Y-107575778D01*
X142462125Y-108330000D01*
X142152670Y-108330000D01*
X142152670Y-107575778D01*
X141837108Y-107575778D01*
X141837108Y-107329581D01*
G37*
G36*
X143812056Y-108330000D02*
G01*
X143488251Y-108330000D01*
X143439036Y-108165868D01*
X143086593Y-108165868D01*
X143038050Y-108330000D01*
X142721755Y-108330000D01*
X142864390Y-107950935D01*
X143153516Y-107950935D01*
X143374128Y-107950935D01*
X143263486Y-107589883D01*
X143153516Y-107950935D01*
X142864390Y-107950935D01*
X143098195Y-107329581D01*
X143435616Y-107329581D01*
X143812056Y-108330000D01*
G37*
G36*
X143910546Y-107329581D02*
G01*
X144739873Y-107329581D01*
X144739873Y-107544515D01*
X144220674Y-107544515D01*
X144220674Y-107704738D01*
X144702260Y-107704738D01*
X144702260Y-107907948D01*
X144220674Y-107907948D01*
X144220674Y-108103342D01*
X144754894Y-108103342D01*
X144754894Y-108330000D01*
X143910546Y-108330000D01*
X143910546Y-107329581D01*
G37*
G36*
X146156604Y-108330000D02*
G01*
X145321843Y-108330000D01*
X145337750Y-108249907D01*
X145366548Y-108172849D01*
X145408915Y-108097969D01*
X145463230Y-108030125D01*
X145550837Y-107945877D01*
X145681857Y-107841758D01*
X145791241Y-107754129D01*
X145838294Y-107704494D01*
X145864591Y-107656951D01*
X145872427Y-107615528D01*
X145868656Y-107586592D01*
X145857551Y-107560967D01*
X145838600Y-107537737D01*
X145814382Y-107519938D01*
X145786396Y-107509177D01*
X145753542Y-107505436D01*
X145719437Y-107509360D01*
X145690826Y-107520586D01*
X145666469Y-107539080D01*
X145648185Y-107563879D01*
X145632657Y-107601940D01*
X145621040Y-107657843D01*
X145342359Y-107635190D01*
X145357574Y-107557317D01*
X145377954Y-107496961D01*
X145402443Y-107450908D01*
X145435113Y-107410636D01*
X145475842Y-107376864D01*
X145525724Y-107349303D01*
X145580107Y-107330993D01*
X145652135Y-107318587D01*
X145746031Y-107313949D01*
X145844320Y-107318374D01*
X145918942Y-107330142D01*
X145974521Y-107347349D01*
X146025637Y-107373966D01*
X146068102Y-107408036D01*
X146102931Y-107449993D01*
X146128921Y-107497902D01*
X146144479Y-107549250D01*
X146149765Y-107605087D01*
X146143931Y-107664471D01*
X146126325Y-107722338D01*
X146096154Y-107779659D01*
X146055924Y-107831175D01*
X145993024Y-107891420D01*
X145901126Y-107961987D01*
X145788713Y-108042892D01*
X145722157Y-108103342D01*
X146156604Y-108103342D01*
X146156604Y-108330000D01*
G37*
G36*
X146545194Y-107618764D02*
G01*
X146282206Y-107571992D01*
X146303108Y-107511505D01*
X146331074Y-107460196D01*
X146365990Y-107416814D01*
X146408235Y-107380505D01*
X146455675Y-107353204D01*
X146513984Y-107332381D01*
X146585331Y-107318844D01*
X146672261Y-107313949D01*
X146773301Y-107319607D01*
X146851392Y-107334834D01*
X146910972Y-107357545D01*
X146955766Y-107386489D01*
X146994637Y-107425864D01*
X147021539Y-107468761D01*
X147037678Y-107516001D01*
X147043205Y-107568878D01*
X147039206Y-107610689D01*
X147027413Y-107649284D01*
X147007668Y-107685443D01*
X146981277Y-107717474D01*
X146946024Y-107747977D01*
X146900384Y-107776973D01*
X146954545Y-107793627D01*
X146989228Y-107810434D01*
X147033662Y-107846126D01*
X147066775Y-107891339D01*
X147081763Y-107925780D01*
X147091141Y-107965379D01*
X147094435Y-108011140D01*
X147089415Y-108068218D01*
X147074317Y-108123831D01*
X147048640Y-108178752D01*
X147013826Y-108227925D01*
X146970221Y-108268902D01*
X146916810Y-108302278D01*
X146857803Y-108325128D01*
X146783547Y-108340141D01*
X146690702Y-108345631D01*
X146599431Y-108341461D01*
X146528866Y-108330278D01*
X146475157Y-108313757D01*
X146425079Y-108288834D01*
X146382064Y-108257782D01*
X146345342Y-108220396D01*
X146314948Y-108177388D01*
X146288807Y-108126265D01*
X146267185Y-108065851D01*
X146545194Y-108029092D01*
X146559803Y-108084015D01*
X146577044Y-108121232D01*
X146596058Y-108145230D01*
X146620736Y-108162990D01*
X146649609Y-108173809D01*
X146683863Y-108177592D01*
X146719422Y-108172954D01*
X146750087Y-108159436D01*
X146777103Y-108136559D01*
X146797277Y-108107161D01*
X146809862Y-108071239D01*
X146814350Y-108027016D01*
X146809909Y-107981824D01*
X146797680Y-107946534D01*
X146778446Y-107918939D01*
X146752326Y-107897998D01*
X146720448Y-107885146D01*
X146681115Y-107880593D01*
X146645651Y-107884084D01*
X146590929Y-107897018D01*
X146605278Y-107697472D01*
X146641487Y-107700830D01*
X146676551Y-107696856D01*
X146706558Y-107685408D01*
X146732650Y-107666453D01*
X146753247Y-107641676D01*
X146765199Y-107614813D01*
X146769226Y-107584937D01*
X146765977Y-107555996D01*
X146756799Y-107532375D01*
X146741871Y-107512885D01*
X146722128Y-107498282D01*
X146697554Y-107489164D01*
X146666766Y-107485896D01*
X146635182Y-107489372D01*
X146608929Y-107499254D01*
X146586837Y-107515389D01*
X146570120Y-107537201D01*
X146555923Y-107570382D01*
X146545194Y-107618764D01*
G37*
G36*
X147929074Y-107927487D02*
G01*
X148054737Y-107927487D01*
X148054737Y-108142421D01*
X147929074Y-108142421D01*
X147929074Y-108330000D01*
X147686541Y-108330000D01*
X147686541Y-108142421D01*
X147179676Y-108142421D01*
X147179676Y-107927487D01*
X147418790Y-107927487D01*
X147686541Y-107927487D01*
X147686541Y-107610460D01*
X147418790Y-107927487D01*
X147179676Y-107927487D01*
X147179676Y-107914359D01*
X147686541Y-107313949D01*
X147929074Y-107313949D01*
X147929074Y-107927487D01*
G37*
G36*
X148637172Y-107319748D02*
G01*
X148718433Y-107335496D01*
X148781900Y-107359235D01*
X148830941Y-107389787D01*
X148873828Y-107431231D01*
X148903314Y-107476220D01*
X148920916Y-107525604D01*
X148926928Y-107580785D01*
X148922709Y-107624363D01*
X148910099Y-107665885D01*
X148888704Y-107706081D01*
X148853852Y-107746827D01*
X148798518Y-107790040D01*
X148849560Y-107819847D01*
X148889450Y-107854201D01*
X148919723Y-107893232D01*
X148941907Y-107937484D01*
X148955206Y-107984586D01*
X148959718Y-108035382D01*
X148955846Y-108084635D01*
X148944372Y-108131243D01*
X148925219Y-108175821D01*
X148899610Y-108217233D01*
X148871390Y-108250497D01*
X148840527Y-108276632D01*
X148785927Y-108306733D01*
X148715536Y-108328900D01*
X148639241Y-108341344D01*
X148555984Y-108345631D01*
X148449500Y-108340594D01*
X148370353Y-108327315D01*
X148312841Y-108308079D01*
X148260536Y-108278521D01*
X148218363Y-108241770D01*
X148185102Y-108197376D01*
X148160943Y-108147067D01*
X148146357Y-108092943D01*
X148141382Y-108034038D01*
X148142238Y-108023902D01*
X148418720Y-108023902D01*
X148423447Y-108066321D01*
X148436927Y-108101794D01*
X148459020Y-108131857D01*
X148487927Y-108155565D01*
X148518338Y-108169160D01*
X148551222Y-108173684D01*
X148582711Y-108169145D01*
X148612230Y-108155388D01*
X148640737Y-108131125D01*
X148662493Y-108100711D01*
X148675738Y-108065223D01*
X148680365Y-108023230D01*
X148675677Y-107980823D01*
X148662297Y-107945259D01*
X148640370Y-107915031D01*
X148611648Y-107891116D01*
X148581147Y-107877367D01*
X148547863Y-107872777D01*
X148514939Y-107877250D01*
X148485090Y-107890576D01*
X148457310Y-107913627D01*
X148436408Y-107942994D01*
X148423375Y-107979125D01*
X148418720Y-108023902D01*
X148142238Y-108023902D01*
X148146245Y-107976487D01*
X148160088Y-107927207D01*
X148182354Y-107884684D01*
X148213389Y-107848144D01*
X148254864Y-107816588D01*
X148308750Y-107790040D01*
X148249866Y-107751692D01*
X148213067Y-107712859D01*
X148190434Y-107672371D01*
X148176775Y-107628022D01*
X148173604Y-107594645D01*
X148433741Y-107594645D01*
X148437549Y-107627464D01*
X148448384Y-107654593D01*
X148466164Y-107677322D01*
X148489541Y-107694369D01*
X148517896Y-107704907D01*
X148552626Y-107708646D01*
X148583203Y-107705049D01*
X148609013Y-107694724D01*
X148631150Y-107677627D01*
X148648042Y-107655289D01*
X148658322Y-107628913D01*
X148661925Y-107597332D01*
X148658163Y-107564513D01*
X148647434Y-107537161D01*
X148629807Y-107514045D01*
X148606688Y-107496383D01*
X148579751Y-107485707D01*
X148547863Y-107481988D01*
X148515448Y-107485666D01*
X148488390Y-107496155D01*
X148465492Y-107513374D01*
X148448045Y-107535985D01*
X148437450Y-107562677D01*
X148433741Y-107594645D01*
X148173604Y-107594645D01*
X148172096Y-107578770D01*
X148179318Y-107519917D01*
X148200584Y-107467319D01*
X148236700Y-107419268D01*
X148290248Y-107374888D01*
X148337130Y-107349507D01*
X148392387Y-107330455D01*
X148457483Y-107318283D01*
X148534125Y-107313949D01*
X148637172Y-107319748D01*
G37*
G36*
X149585979Y-107317582D02*
G01*
X149647818Y-107327328D01*
X149694950Y-107341732D01*
X149739055Y-107363399D01*
X149777209Y-107390431D01*
X149810049Y-107423004D01*
X149837416Y-107460520D01*
X149860728Y-107504985D01*
X149879781Y-107557398D01*
X149603115Y-107591409D01*
X149587218Y-107539246D01*
X149566539Y-107509710D01*
X149538253Y-107491960D01*
X149503402Y-107485896D01*
X149471766Y-107490079D01*
X149444310Y-107502313D01*
X149419937Y-107523112D01*
X149398195Y-107554223D01*
X149384309Y-107589575D01*
X149370346Y-107655042D01*
X149357895Y-107764577D01*
X149409781Y-107719696D01*
X149460355Y-107689900D01*
X149515745Y-107671986D01*
X149581926Y-107665659D01*
X149647030Y-107671735D01*
X149705641Y-107689456D01*
X149759115Y-107718779D01*
X149808401Y-107760608D01*
X149848592Y-107810756D01*
X149877257Y-107866742D01*
X149894859Y-107929717D01*
X149900969Y-108001249D01*
X149895660Y-108065523D01*
X149880047Y-108125080D01*
X149854135Y-108180889D01*
X149818743Y-108230924D01*
X149775745Y-108271669D01*
X149724381Y-108303927D01*
X149667543Y-108326176D01*
X149598973Y-108340490D01*
X149516347Y-108345631D01*
X149417032Y-108339182D01*
X149337913Y-108321538D01*
X149275219Y-108294584D01*
X149220092Y-108255041D01*
X149171784Y-108201492D01*
X149130016Y-108131613D01*
X149107790Y-108075876D01*
X149090744Y-108009142D01*
X149089741Y-108001920D01*
X149367420Y-108001920D01*
X149372459Y-108054087D01*
X149386400Y-108095348D01*
X149408392Y-108128072D01*
X149438136Y-108153652D01*
X149471197Y-108168603D01*
X149508837Y-108173684D01*
X149543444Y-108169063D01*
X149573557Y-108155525D01*
X149600367Y-108132468D01*
X149619798Y-108102747D01*
X149632521Y-108062754D01*
X149637247Y-108009370D01*
X149632390Y-107954703D01*
X149619220Y-107913088D01*
X149598962Y-107881570D01*
X149571083Y-107856921D01*
X149539850Y-107842513D01*
X149504013Y-107837606D01*
X149467195Y-107842403D01*
X149435166Y-107856429D01*
X149406682Y-107880226D01*
X149385738Y-107910880D01*
X149372320Y-107950571D01*
X149367420Y-108001920D01*
X149089741Y-108001920D01*
X149079697Y-107929597D01*
X149075733Y-107835225D01*
X149081355Y-107722408D01*
X149096916Y-107629251D01*
X149120807Y-107552738D01*
X149151936Y-107490231D01*
X149189795Y-107439551D01*
X149237798Y-107395228D01*
X149292324Y-107360623D01*
X149354299Y-107335315D01*
X149425022Y-107319494D01*
X149506089Y-107313949D01*
X149585979Y-107317582D01*
G37*
D11*
%TO.C,G\u002A\u002A\u002A*%
G36*
X133839008Y-108054178D02*
G01*
X133858349Y-108072331D01*
X133886323Y-108099890D01*
X133920686Y-108134649D01*
X133954111Y-108169111D01*
X134070954Y-108290585D01*
X134068860Y-108414441D01*
X134066766Y-108538297D01*
X133945292Y-108540963D01*
X133823818Y-108543630D01*
X133823818Y-108295633D01*
X133824065Y-108229139D01*
X133824761Y-108169380D01*
X133825838Y-108118855D01*
X133827228Y-108080064D01*
X133828865Y-108055508D01*
X133830543Y-108047637D01*
X133839008Y-108054178D01*
G37*
G36*
X133443239Y-107335128D02*
G01*
X133464159Y-107335316D01*
X133733307Y-107337847D01*
X133733307Y-107456939D01*
X133733307Y-107576031D01*
X133577234Y-107578655D01*
X133421160Y-107581279D01*
X133308085Y-107469597D01*
X133270428Y-107431683D01*
X133238085Y-107397744D01*
X133213319Y-107370267D01*
X133198393Y-107351738D01*
X133195010Y-107345351D01*
X133198258Y-107341599D01*
X133209213Y-107338723D01*
X133229694Y-107336657D01*
X133261519Y-107335333D01*
X133306506Y-107334681D01*
X133366473Y-107334635D01*
X133443239Y-107335128D01*
G37*
G36*
X133070685Y-107344416D02*
G01*
X133085591Y-107351134D01*
X133104423Y-107364719D01*
X133129669Y-107387125D01*
X133163820Y-107420306D01*
X133191109Y-107447704D01*
X133227212Y-107484882D01*
X133258277Y-107518149D01*
X133281893Y-107544825D01*
X133295652Y-107562226D01*
X133298128Y-107566796D01*
X133296616Y-107573035D01*
X133286861Y-107577149D01*
X133265946Y-107579542D01*
X133230954Y-107580615D01*
X133196400Y-107580795D01*
X133150358Y-107580996D01*
X133119400Y-107582133D01*
X133099557Y-107585007D01*
X133086859Y-107590416D01*
X133077337Y-107599162D01*
X133071846Y-107605898D01*
X133054701Y-107638859D01*
X133056426Y-107671109D01*
X133075073Y-107701738D01*
X133098046Y-107728469D01*
X133325167Y-107733233D01*
X133397510Y-107734853D01*
X133453591Y-107736481D01*
X133496202Y-107738391D01*
X133528133Y-107740858D01*
X133552176Y-107744157D01*
X133571122Y-107748562D01*
X133587763Y-107754348D01*
X133601961Y-107760458D01*
X133663914Y-107798114D01*
X133711754Y-107847981D01*
X133744722Y-107908677D01*
X133762060Y-107978820D01*
X133763262Y-108054136D01*
X133748644Y-108131554D01*
X133718866Y-108197444D01*
X133673957Y-108251764D01*
X133613944Y-108294473D01*
X133595160Y-108304007D01*
X133542760Y-108328694D01*
X133178031Y-108331501D01*
X132813303Y-108334308D01*
X132815991Y-108221936D01*
X132818679Y-108109565D01*
X133166428Y-108104503D01*
X133245770Y-108103293D01*
X133318831Y-108102075D01*
X133383487Y-108100891D01*
X133437617Y-108099784D01*
X133479098Y-108098799D01*
X133505806Y-108097978D01*
X133515619Y-108097365D01*
X133515628Y-108097357D01*
X133519421Y-108087911D01*
X133526623Y-108067890D01*
X133527041Y-108066691D01*
X133531401Y-108034638D01*
X133524886Y-108003353D01*
X133509500Y-107980079D01*
X133501603Y-107974774D01*
X133487831Y-107972385D01*
X133457894Y-107969867D01*
X133414679Y-107967371D01*
X133361074Y-107965050D01*
X133299966Y-107963058D01*
X133261702Y-107962101D01*
X133190584Y-107960460D01*
X133135656Y-107958884D01*
X133094054Y-107957052D01*
X133062917Y-107954640D01*
X133039384Y-107951327D01*
X133020591Y-107946791D01*
X133003678Y-107940709D01*
X132985782Y-107932759D01*
X132980921Y-107930489D01*
X132916702Y-107890698D01*
X132866829Y-107838793D01*
X132832116Y-107776077D01*
X132813376Y-107703848D01*
X132810139Y-107657200D01*
X132816350Y-107581303D01*
X132836726Y-107515698D01*
X132872607Y-107456584D01*
X132887200Y-107438855D01*
X132924774Y-107403240D01*
X132968383Y-107373298D01*
X133012570Y-107352120D01*
X133051877Y-107342796D01*
X133057214Y-107342610D01*
X133070685Y-107344416D01*
G37*
G36*
X134042827Y-107561360D02*
G01*
X134117764Y-107561383D01*
X134198857Y-107561421D01*
X134213142Y-107561430D01*
X134578648Y-107561644D01*
X134634579Y-107586745D01*
X134684585Y-107616202D01*
X134731514Y-107656382D01*
X134769876Y-107701927D01*
X134791035Y-107739394D01*
X134805379Y-107789281D01*
X134812206Y-107848663D01*
X134811134Y-107909365D01*
X134801782Y-107963213D01*
X134801523Y-107964112D01*
X134773156Y-108029494D01*
X134729951Y-108086654D01*
X134675126Y-108132224D01*
X134611895Y-108162837D01*
X134611634Y-108162924D01*
X134575331Y-108174922D01*
X134752162Y-108351937D01*
X134799543Y-108399800D01*
X134842129Y-108443653D01*
X134878143Y-108481594D01*
X134905806Y-108511726D01*
X134923339Y-108532149D01*
X134928994Y-108540770D01*
X134924663Y-108544534D01*
X134910548Y-108547469D01*
X134884960Y-108549657D01*
X134846215Y-108551178D01*
X134792626Y-108552112D01*
X134722507Y-108552539D01*
X134681177Y-108552588D01*
X134433361Y-108552588D01*
X134128589Y-108246867D01*
X133823818Y-107941146D01*
X133823818Y-107847562D01*
X134075014Y-107847562D01*
X134075143Y-107857337D01*
X134077551Y-107867463D01*
X134083582Y-107879508D01*
X134094582Y-107895040D01*
X134111897Y-107915628D01*
X134136870Y-107942840D01*
X134170847Y-107978245D01*
X134215174Y-108023410D01*
X134271196Y-108079905D01*
X134293590Y-108102419D01*
X134346692Y-108155642D01*
X134395482Y-108204272D01*
X134438348Y-108246725D01*
X134473680Y-108281416D01*
X134499867Y-108306760D01*
X134515297Y-108321174D01*
X134518792Y-108323931D01*
X134514752Y-108317633D01*
X134499984Y-108300711D01*
X134477127Y-108276116D01*
X134461322Y-108259621D01*
X134389434Y-108185033D01*
X134330261Y-108122856D01*
X134282970Y-108072103D01*
X134246729Y-108031784D01*
X134220706Y-108000911D01*
X134204070Y-107978495D01*
X134195987Y-107963547D01*
X134195627Y-107955078D01*
X134202156Y-107952099D01*
X134202531Y-107952081D01*
X134213993Y-107951868D01*
X134241214Y-107951458D01*
X134280897Y-107950898D01*
X134329748Y-107950233D01*
X134370110Y-107949699D01*
X134428941Y-107948827D01*
X134471715Y-107947713D01*
X134501427Y-107945944D01*
X134521074Y-107943107D01*
X134533652Y-107938791D01*
X134542157Y-107932582D01*
X134548748Y-107925107D01*
X134564860Y-107892821D01*
X134562147Y-107860473D01*
X134543392Y-107832661D01*
X134519830Y-107809100D01*
X134298347Y-107811658D01*
X134076864Y-107814216D01*
X134075014Y-107847562D01*
X133823818Y-107847562D01*
X133823818Y-107751443D01*
X133824101Y-107683301D01*
X133825030Y-107632311D01*
X133826725Y-107596579D01*
X133829302Y-107574210D01*
X133832882Y-107563310D01*
X133835727Y-107561477D01*
X133847636Y-107561424D01*
X133876451Y-107561386D01*
X133920021Y-107561362D01*
X133976196Y-107561353D01*
X134042827Y-107561360D01*
G37*
G36*
X133989551Y-106650970D02*
G01*
X134080492Y-106661720D01*
X134131764Y-106671567D01*
X134238816Y-106698504D01*
X134331581Y-106727444D01*
X134414828Y-106760349D01*
X134493326Y-106799180D01*
X134571842Y-106845899D01*
X134599388Y-106863929D01*
X134714135Y-106950263D01*
X134820541Y-107049564D01*
X134916647Y-107159242D01*
X135000492Y-107276704D01*
X135070118Y-107399361D01*
X135123564Y-107524621D01*
X135141797Y-107581086D01*
X135159667Y-107650666D01*
X135175809Y-107728356D01*
X135189294Y-107808324D01*
X135199193Y-107884736D01*
X135204577Y-107951761D01*
X135205286Y-107979757D01*
X135200767Y-108069550D01*
X135188058Y-108168778D01*
X135168429Y-108271548D01*
X135143151Y-108371967D01*
X135113491Y-108464145D01*
X135086931Y-108529145D01*
X135037131Y-108624941D01*
X134976541Y-108721990D01*
X134908627Y-108815592D01*
X134836857Y-108901048D01*
X134764698Y-108973662D01*
X134747974Y-108988428D01*
X134618446Y-109087046D01*
X134478487Y-109169838D01*
X134328747Y-109236482D01*
X134169876Y-109286654D01*
X134128694Y-109296612D01*
X134088295Y-109303583D01*
X134034322Y-109309788D01*
X133971782Y-109314959D01*
X133905680Y-109318832D01*
X133841024Y-109321139D01*
X133782818Y-109321616D01*
X133736069Y-109319996D01*
X133719016Y-109318376D01*
X133631095Y-109303445D01*
X133535830Y-109280878D01*
X133438792Y-109252423D01*
X133345550Y-109219823D01*
X133261671Y-109184827D01*
X133209021Y-109158477D01*
X133133759Y-109112146D01*
X133053838Y-109054225D01*
X132974900Y-108989155D01*
X132902585Y-108921377D01*
X132885370Y-108903656D01*
X132784450Y-108785741D01*
X132700575Y-108661663D01*
X132632218Y-108528766D01*
X132577849Y-108384393D01*
X132568108Y-108352513D01*
X132550382Y-108289694D01*
X132537228Y-108235351D01*
X132528107Y-108184789D01*
X132522484Y-108133314D01*
X132519821Y-108076232D01*
X132519582Y-108008848D01*
X132520890Y-107939677D01*
X132521495Y-107917393D01*
X132597673Y-107917393D01*
X132597909Y-108014291D01*
X132610201Y-108162077D01*
X132635728Y-108298391D01*
X132675455Y-108426339D01*
X132730348Y-108549028D01*
X132801370Y-108669564D01*
X132801571Y-108669869D01*
X132894821Y-108794332D01*
X133001193Y-108905583D01*
X133119325Y-109002775D01*
X133247857Y-109085062D01*
X133385428Y-109151597D01*
X133530676Y-109201531D01*
X133682242Y-109234019D01*
X133715289Y-109238614D01*
X133763988Y-109242326D01*
X133825602Y-109243468D01*
X133894197Y-109242259D01*
X133963840Y-109238918D01*
X134028596Y-109233665D01*
X134082531Y-109226718D01*
X134094336Y-109224606D01*
X134239050Y-109187010D01*
X134378852Y-109131685D01*
X134511720Y-109059736D01*
X134635630Y-108972267D01*
X134748559Y-108870384D01*
X134755158Y-108863612D01*
X134850249Y-108755903D01*
X134928946Y-108645366D01*
X134992980Y-108528727D01*
X135044081Y-108402712D01*
X135083980Y-108264048D01*
X135092870Y-108224885D01*
X135101442Y-108180786D01*
X135107412Y-108137950D01*
X135111192Y-108091296D01*
X135113195Y-108035744D01*
X135113832Y-107966654D01*
X135113607Y-107903715D01*
X135112436Y-107854922D01*
X135109843Y-107815370D01*
X135105354Y-107780157D01*
X135098493Y-107744380D01*
X135088785Y-107703134D01*
X135087980Y-107699887D01*
X135057350Y-107589633D01*
X135022835Y-107492492D01*
X134981913Y-107402573D01*
X134932062Y-107313982D01*
X134903613Y-107269277D01*
X134831713Y-107172979D01*
X134746047Y-107080022D01*
X134650539Y-106993784D01*
X134549112Y-106917645D01*
X134445691Y-106854982D01*
X134391835Y-106828580D01*
X134274433Y-106781127D01*
X134162561Y-106747339D01*
X134049998Y-106725883D01*
X133930520Y-106715426D01*
X133856460Y-106713875D01*
X133699201Y-106722931D01*
X133547571Y-106750003D01*
X133402464Y-106794673D01*
X133264776Y-106856521D01*
X133135403Y-106935130D01*
X133015239Y-107030079D01*
X132905181Y-107140950D01*
X132879341Y-107171117D01*
X132816852Y-107255295D01*
X132758343Y-107351204D01*
X132707419Y-107452161D01*
X132667685Y-107551480D01*
X132657998Y-107581573D01*
X132626580Y-107699983D01*
X132606748Y-107809928D01*
X132597673Y-107917393D01*
X132521495Y-107917393D01*
X132522638Y-107875260D01*
X132524611Y-107825594D01*
X132527373Y-107786378D01*
X132531490Y-107753313D01*
X132537527Y-107722096D01*
X132546049Y-107688428D01*
X132557622Y-107648007D01*
X132560521Y-107638162D01*
X132609739Y-107493372D01*
X132668221Y-107363104D01*
X132737679Y-107244388D01*
X132819827Y-107134251D01*
X132904263Y-107041776D01*
X133011577Y-106943505D01*
X133123678Y-106860582D01*
X133243145Y-106791648D01*
X133372555Y-106735340D01*
X133514487Y-106690297D01*
X133615525Y-106666237D01*
X133697835Y-106653549D01*
X133791855Y-106646819D01*
X133891216Y-106645981D01*
X133989551Y-106650970D01*
G37*
%TD*%
M02*
