M48
; DRILL file KiCad 10.0.6 date 2026-09-25T12:58:40
; FORMAT={-:-/ absolute / metric / decimal}
; #@! TF.CreationDate,2026-09-25T12:58:40+02:00
; #@! TF.GenerationSoftware,Kicad,Pcbnew,10.0.6
; #@! TF.FileFunction,Plated,1,2,PTH
FMAT,2
METRIC
; #@! TA.AperFunction,Plated,PTH,ViaDrill
T1C0.300
%
G90
G05
T1
X112.25Y-104.7
X112.5Y-106.0
X115.25Y-113.525
X116.75Y-111.75
X116.917Y-113.408
X117.483Y-112.842
X121.6Y-111.6
X122.0Y-107.0
X125.0Y-108.0
X177.5Y-103.5
X178.5Y-104.5
X179.5Y-106.121
X183.5Y-108.5
X184.5Y-114.0
X185.904Y-108.404
X186.47Y-108.97
X187.5Y-114.121
X189.5Y-111.0
X191.0Y-107.879
X192.0Y-102.9
X192.0Y-109.0
X192.0Y-115.0
X192.5Y-105.9
X193.0Y-101.0
X193.0Y-107.0
X193.5Y-103.0
X193.5Y-105.0
X193.5Y-109.0
X193.5Y-110.0
X193.5Y-113.0
M30
