%TF.GenerationSoftware,KiCad,Pcbnew,10.0.6*%
%TF.CreationDate,2026-09-25T12:58:26+02:00*%
%TF.ProjectId,22PinTo40Pin,32325069-6e54-46f3-9430-50696e2e6b69,rev?*%
%TF.SameCoordinates,Original*%
%TF.FileFunction,Copper,L2,Bot*%
%TF.FilePolarity,Positive*%
%FSLAX46Y46*%
G04 Gerber Fmt 4.6, Leading zero omitted, Abs format (unit mm)*
G04 Created by KiCad (PCBNEW 10.0.6) date 2026-09-25 12:58:26*
%MOMM*%
%LPD*%
G01*
G04 APERTURE LIST*
%TA.AperFunction,ViaPad*%
%ADD10C,0.550000*%
%TD*%
%TA.AperFunction,Conductor*%
%ADD11C,0.500000*%
%TD*%
%TA.AperFunction,Conductor*%
%ADD12C,0.200000*%
%TD*%
%TA.AperFunction,Conductor*%
%ADD13C,0.090000*%
%TD*%
G04 APERTURE END LIST*
D10*
%TO.N,+3.3V*%
X183500000Y-108500000D03*
X192000000Y-115000000D03*
%TO.N,GND*%
X184500000Y-114000000D03*
X122000000Y-107000000D03*
X193000000Y-107000000D03*
X125000000Y-108000000D03*
X189500000Y-111000000D03*
X193000000Y-101000000D03*
X115250000Y-113525000D03*
X116750000Y-111750000D03*
X121600000Y-111600000D03*
X112250000Y-104700000D03*
X112500000Y-106000000D03*
X193500000Y-110000000D03*
%TO.N,Net-(J1-Pin_11)*%
X179500000Y-106121232D03*
X191000000Y-107878984D03*
%TO.N,Net-(J1-Pin_13)*%
X193500000Y-113000000D03*
X178500000Y-104500000D03*
%TO.N,Net-(J1-Pin_14)*%
X177500000Y-103500000D03*
X187500000Y-114121232D03*
%TO.N,/CSI_D1_N*%
X192500000Y-105900000D03*
X193500000Y-105000000D03*
%TO.N,/CSI_CLK_N*%
X186469670Y-108969670D03*
X192000000Y-109000000D03*
%TO.N,/CSI_D0_P*%
X117482843Y-112842157D03*
X193500000Y-103000000D03*
%TO.N,/CSI_CLK_P*%
X185903984Y-108403984D03*
X193500000Y-109000000D03*
%TO.N,/CSI_D0_N*%
X116917157Y-113407843D03*
X192000000Y-102900000D03*
%TD*%
%TO.N,+3.3V*%
D11*
X183500000Y-108500000D02*
X190000000Y-115000000D01*
X190000000Y-115000000D02*
X192000000Y-115000000D01*
%TO.N,GND*%
D12*
X112250000Y-104700000D02*
X112250000Y-105750000D01*
X112250000Y-105750000D02*
X112500000Y-106000000D01*
X115250000Y-113250000D02*
X116750000Y-111750000D01*
X115250000Y-113525000D02*
X115475000Y-113525000D01*
X115250000Y-113525000D02*
X115250000Y-113250000D01*
%TO.N,Net-(J1-Pin_11)*%
X189242248Y-106121232D02*
X191000000Y-107878984D01*
X179500000Y-106121232D02*
X189242248Y-106121232D01*
%TO.N,Net-(J1-Pin_13)*%
X178500000Y-106000000D02*
X180475000Y-107975000D01*
X178500000Y-104500000D02*
X178500000Y-106000000D01*
X184732537Y-107975000D02*
X189757537Y-113000000D01*
X180475000Y-107975000D02*
X184732537Y-107975000D01*
X189757537Y-113000000D02*
X193500000Y-113000000D01*
%TO.N,Net-(J1-Pin_14)*%
X187500000Y-114121232D02*
X186126258Y-114121232D01*
X186126258Y-114121232D02*
X177500000Y-105494974D01*
X177500000Y-105494974D02*
X177500000Y-103500000D01*
%TO.N,/CSI_D1_N*%
D13*
X192500000Y-105900000D02*
X192600000Y-105900000D01*
X192600000Y-105900000D02*
X193500000Y-105000000D01*
%TO.N,/CSI_CLK_N*%
X186585355Y-108853985D02*
X191853985Y-108853985D01*
X191853985Y-108853985D02*
X192000000Y-109000000D01*
X186469670Y-108969670D02*
X186585355Y-108853985D01*
%TO.N,/CSI_D0_P*%
X175049265Y-102874999D02*
X175524264Y-102400000D01*
X175524264Y-102400000D02*
X191700000Y-102400000D01*
X192600000Y-102100000D02*
X193500000Y-103000000D01*
X117873959Y-112957842D02*
X127956802Y-102874999D01*
X117598528Y-112957842D02*
X117873959Y-112957842D01*
X191700000Y-102400000D02*
X192000000Y-102100000D01*
X127956802Y-102874999D02*
X175049265Y-102874999D01*
X117482843Y-112842157D02*
X117598528Y-112957842D01*
X192000000Y-102100000D02*
X192600000Y-102100000D01*
%TO.N,/CSI_CLK_P*%
X185903984Y-108403984D02*
X192403984Y-108403984D01*
X193000000Y-109000000D02*
X193500000Y-109000000D01*
X192403984Y-108403984D02*
X193000000Y-109000000D01*
%TO.N,/CSI_D0_N*%
X116917157Y-113407843D02*
X118060356Y-113407843D01*
X175194239Y-103224999D02*
X175444238Y-102975000D01*
X191950000Y-102950000D02*
X192000000Y-102900000D01*
X178332537Y-102975000D02*
X178357537Y-102950000D01*
X118060356Y-113407843D02*
X128243200Y-103224999D01*
X175444238Y-102975000D02*
X178332537Y-102975000D01*
X128243200Y-103224999D02*
X175194239Y-103224999D01*
X178357537Y-102950000D02*
X191950000Y-102950000D01*
%TD*%
%TA.AperFunction,Conductor*%
%TO.N,GND*%
G36*
X176678660Y-103540185D02*
G01*
X176724415Y-103592989D01*
X176733238Y-103620309D01*
X176754300Y-103726197D01*
X176754302Y-103726205D01*
X176812759Y-103867334D01*
X176812764Y-103867343D01*
X176878602Y-103965875D01*
X176899480Y-104032552D01*
X176899500Y-104034766D01*
X176899500Y-105408304D01*
X176899499Y-105408322D01*
X176899499Y-105574028D01*
X176899498Y-105574028D01*
X176917366Y-105640711D01*
X176940423Y-105726759D01*
X176951358Y-105745698D01*
X176968564Y-105775500D01*
X177019479Y-105863688D01*
X177019481Y-105863691D01*
X177138349Y-105982559D01*
X177138355Y-105982564D01*
X185641397Y-114485606D01*
X185641407Y-114485617D01*
X185645737Y-114489947D01*
X185645738Y-114489948D01*
X185757542Y-114601752D01*
X185831593Y-114644505D01*
X185894473Y-114680809D01*
X186047201Y-114721732D01*
X186205315Y-114721732D01*
X186965234Y-114721732D01*
X187032273Y-114741417D01*
X187034125Y-114742630D01*
X187132656Y-114808467D01*
X187132662Y-114808470D01*
X187132663Y-114808471D01*
X187273795Y-114866930D01*
X187423615Y-114896731D01*
X187423619Y-114896732D01*
X187423620Y-114896732D01*
X187576381Y-114896732D01*
X187576382Y-114896731D01*
X187726205Y-114866930D01*
X187867337Y-114808471D01*
X187994352Y-114723602D01*
X188102370Y-114615584D01*
X188187239Y-114488569D01*
X188187241Y-114488562D01*
X188190109Y-114483199D01*
X188191618Y-114484005D01*
X188230318Y-114435957D01*
X188296606Y-114413874D01*
X188364310Y-114431135D01*
X188388746Y-114450113D01*
X189026452Y-115087819D01*
X189059937Y-115149142D01*
X189054953Y-115218834D01*
X189013081Y-115274767D01*
X188947617Y-115299184D01*
X188938771Y-115299500D01*
X179076604Y-115299500D01*
X179021150Y-115286409D01*
X176135982Y-113843825D01*
X176122545Y-113836018D01*
X176113572Y-113830022D01*
X176087368Y-113819168D01*
X176079372Y-113815519D01*
X176053996Y-113802832D01*
X176046986Y-113800912D01*
X176035515Y-113798631D01*
X176000000Y-113785354D01*
X176000000Y-113200000D01*
X119081319Y-113158331D01*
X123513447Y-108726205D01*
X128432834Y-103806818D01*
X128494157Y-103773333D01*
X128520515Y-103770499D01*
X175266053Y-103770499D01*
X175266056Y-103770499D01*
X175404794Y-103733324D01*
X175529184Y-103661508D01*
X175630748Y-103559944D01*
X175630748Y-103559943D01*
X175633873Y-103556819D01*
X175695196Y-103523334D01*
X175721554Y-103520500D01*
X176611621Y-103520500D01*
X176678660Y-103540185D01*
G37*
%TD.AperFunction*%
%TA.AperFunction,Conductor*%
G36*
X199242539Y-100720185D02*
G01*
X199288294Y-100772989D01*
X199299500Y-100824500D01*
X199299500Y-115175500D01*
X199279815Y-115242539D01*
X199227011Y-115288294D01*
X199175500Y-115299500D01*
X192882213Y-115299500D01*
X192815174Y-115279815D01*
X192769419Y-115227011D01*
X192759475Y-115157853D01*
X192760596Y-115151309D01*
X192766729Y-115120472D01*
X192775500Y-115076380D01*
X192775500Y-114923620D01*
X192745698Y-114773795D01*
X192687239Y-114632663D01*
X192687238Y-114632662D01*
X192687235Y-114632656D01*
X192602370Y-114505648D01*
X192602367Y-114505644D01*
X192494355Y-114397632D01*
X192494351Y-114397629D01*
X192367343Y-114312764D01*
X192367334Y-114312759D01*
X192226205Y-114254302D01*
X192226197Y-114254300D01*
X192076384Y-114224500D01*
X192076380Y-114224500D01*
X191923620Y-114224500D01*
X191923619Y-114224500D01*
X191860490Y-114237057D01*
X191809915Y-114247117D01*
X191785725Y-114249500D01*
X190362229Y-114249500D01*
X190295190Y-114229815D01*
X190274548Y-114213181D01*
X189873548Y-113812181D01*
X189840063Y-113750858D01*
X189845047Y-113681166D01*
X189886919Y-113625233D01*
X189952383Y-113600816D01*
X189961229Y-113600500D01*
X192965234Y-113600500D01*
X193032273Y-113620185D01*
X193034125Y-113621398D01*
X193132656Y-113687235D01*
X193132662Y-113687238D01*
X193132663Y-113687239D01*
X193273795Y-113745698D01*
X193422011Y-113775180D01*
X193423615Y-113775499D01*
X193423619Y-113775500D01*
X193423620Y-113775500D01*
X193576381Y-113775500D01*
X193576382Y-113775499D01*
X193726205Y-113745698D01*
X193867337Y-113687239D01*
X193994352Y-113602370D01*
X194102370Y-113494352D01*
X194187239Y-113367337D01*
X194245698Y-113226205D01*
X194275500Y-113076380D01*
X194275500Y-112923620D01*
X194245698Y-112773795D01*
X194187239Y-112632663D01*
X194187238Y-112632662D01*
X194187235Y-112632656D01*
X194102370Y-112505648D01*
X194102367Y-112505644D01*
X193994355Y-112397632D01*
X193994351Y-112397629D01*
X193867343Y-112312764D01*
X193867334Y-112312759D01*
X193726205Y-112254302D01*
X193726197Y-112254300D01*
X193576384Y-112224500D01*
X193576380Y-112224500D01*
X193423620Y-112224500D01*
X193423615Y-112224500D01*
X193273802Y-112254300D01*
X193273794Y-112254302D01*
X193132665Y-112312759D01*
X193132656Y-112312764D01*
X193034125Y-112378602D01*
X192967448Y-112399480D01*
X192965234Y-112399500D01*
X190057634Y-112399500D01*
X189990595Y-112379815D01*
X189969953Y-112363181D01*
X187217938Y-109611166D01*
X187184453Y-109549843D01*
X187189437Y-109480151D01*
X187231309Y-109424218D01*
X187296773Y-109399801D01*
X187305619Y-109399485D01*
X191267962Y-109399485D01*
X191335001Y-109419170D01*
X191371064Y-109454594D01*
X191397629Y-109494351D01*
X191397632Y-109494355D01*
X191505644Y-109602367D01*
X191505648Y-109602370D01*
X191632656Y-109687235D01*
X191632662Y-109687238D01*
X191632663Y-109687239D01*
X191773795Y-109745698D01*
X191923615Y-109775499D01*
X191923619Y-109775500D01*
X191923620Y-109775500D01*
X192076381Y-109775500D01*
X192076382Y-109775499D01*
X192226205Y-109745698D01*
X192367337Y-109687239D01*
X192494352Y-109602370D01*
X192594706Y-109502015D01*
X192656027Y-109468531D01*
X192725718Y-109473515D01*
X192744378Y-109482306D01*
X192765243Y-109494352D01*
X192789445Y-109508325D01*
X192924224Y-109544439D01*
X192979809Y-109576532D01*
X193005644Y-109602367D01*
X193005648Y-109602370D01*
X193132656Y-109687235D01*
X193132662Y-109687238D01*
X193132663Y-109687239D01*
X193273795Y-109745698D01*
X193423615Y-109775499D01*
X193423619Y-109775500D01*
X193423620Y-109775500D01*
X193576381Y-109775500D01*
X193576382Y-109775499D01*
X193726205Y-109745698D01*
X193867337Y-109687239D01*
X193994352Y-109602370D01*
X194102370Y-109494352D01*
X194187239Y-109367337D01*
X194245698Y-109226205D01*
X194275500Y-109076380D01*
X194275500Y-108923620D01*
X194245698Y-108773795D01*
X194187239Y-108632663D01*
X194187238Y-108632662D01*
X194187235Y-108632656D01*
X194102370Y-108505648D01*
X194102367Y-108505644D01*
X193994355Y-108397632D01*
X193994351Y-108397629D01*
X193867343Y-108312764D01*
X193867334Y-108312759D01*
X193726205Y-108254302D01*
X193726197Y-108254300D01*
X193576384Y-108224500D01*
X193576380Y-108224500D01*
X193423620Y-108224500D01*
X193423615Y-108224500D01*
X193273802Y-108254300D01*
X193273790Y-108254303D01*
X193174950Y-108295244D01*
X193105481Y-108302713D01*
X193043002Y-108271437D01*
X193039817Y-108268364D01*
X192847563Y-108076110D01*
X192847561Y-108076107D01*
X192738930Y-107967476D01*
X192738922Y-107967470D01*
X192614545Y-107895662D01*
X192614540Y-107895659D01*
X192535569Y-107874499D01*
X192535569Y-107874498D01*
X192488430Y-107861868D01*
X192475801Y-107858484D01*
X192475800Y-107858484D01*
X191888379Y-107858484D01*
X191821340Y-107838799D01*
X191775585Y-107785995D01*
X191766762Y-107758675D01*
X191758422Y-107716747D01*
X191745698Y-107652779D01*
X191687239Y-107511647D01*
X191687238Y-107511646D01*
X191687235Y-107511640D01*
X191602370Y-107384632D01*
X191602367Y-107384628D01*
X191494355Y-107276616D01*
X191494351Y-107276613D01*
X191367343Y-107191748D01*
X191367334Y-107191743D01*
X191226205Y-107133286D01*
X191226197Y-107133284D01*
X191109971Y-107110165D01*
X191048060Y-107077780D01*
X191046481Y-107076229D01*
X189875460Y-105905209D01*
X189793866Y-105823615D01*
X191724500Y-105823615D01*
X191724500Y-105976384D01*
X191754300Y-106126197D01*
X191754302Y-106126205D01*
X191812759Y-106267334D01*
X191812764Y-106267343D01*
X191897629Y-106394351D01*
X191897632Y-106394355D01*
X192005644Y-106502367D01*
X192005648Y-106502370D01*
X192132656Y-106587235D01*
X192132662Y-106587238D01*
X192132663Y-106587239D01*
X192273795Y-106645698D01*
X192423615Y-106675499D01*
X192423619Y-106675500D01*
X192423620Y-106675500D01*
X192576381Y-106675500D01*
X192576382Y-106675499D01*
X192726205Y-106645698D01*
X192867337Y-106587239D01*
X192994352Y-106502370D01*
X193102370Y-106394352D01*
X193187239Y-106267337D01*
X193245698Y-106126205D01*
X193263301Y-106037701D01*
X193295685Y-105975794D01*
X193297123Y-105974328D01*
X193459635Y-105811816D01*
X193520958Y-105778334D01*
X193547315Y-105775500D01*
X193576381Y-105775500D01*
X193576382Y-105775499D01*
X193726205Y-105745698D01*
X193867337Y-105687239D01*
X193994352Y-105602370D01*
X194102370Y-105494352D01*
X194187239Y-105367337D01*
X194245698Y-105226205D01*
X194275500Y-105076380D01*
X194275500Y-104923620D01*
X194245698Y-104773795D01*
X194187239Y-104632663D01*
X194187238Y-104632662D01*
X194187235Y-104632656D01*
X194102370Y-104505648D01*
X194102367Y-104505644D01*
X193994355Y-104397632D01*
X193994351Y-104397629D01*
X193867343Y-104312764D01*
X193867334Y-104312759D01*
X193726205Y-104254302D01*
X193726197Y-104254300D01*
X193576384Y-104224500D01*
X193576380Y-104224500D01*
X193423620Y-104224500D01*
X193423615Y-104224500D01*
X193273802Y-104254300D01*
X193273794Y-104254302D01*
X193132665Y-104312759D01*
X193132656Y-104312764D01*
X193005648Y-104397629D01*
X193005644Y-104397632D01*
X192897632Y-104505644D01*
X192897629Y-104505648D01*
X192812764Y-104632656D01*
X192812759Y-104632665D01*
X192754302Y-104773794D01*
X192754300Y-104773802D01*
X192724500Y-104923615D01*
X192724500Y-104952683D01*
X192704815Y-105019722D01*
X192688181Y-105040364D01*
X192640364Y-105088181D01*
X192579041Y-105121666D01*
X192552683Y-105124500D01*
X192423615Y-105124500D01*
X192273802Y-105154300D01*
X192273794Y-105154302D01*
X192132665Y-105212759D01*
X192132656Y-105212764D01*
X192005648Y-105297629D01*
X192005644Y-105297632D01*
X191897632Y-105405644D01*
X191897629Y-105405648D01*
X191812764Y-105532656D01*
X191812759Y-105532665D01*
X191754302Y-105673794D01*
X191754300Y-105673802D01*
X191724500Y-105823615D01*
X189793866Y-105823615D01*
X189729838Y-105759587D01*
X189729836Y-105759584D01*
X189610965Y-105640713D01*
X189610964Y-105640712D01*
X189499685Y-105576465D01*
X189499683Y-105576464D01*
X189474033Y-105561655D01*
X189474032Y-105561654D01*
X189474031Y-105561654D01*
X189418129Y-105546675D01*
X189321305Y-105520731D01*
X189163191Y-105520731D01*
X189155595Y-105520731D01*
X189155579Y-105520732D01*
X180034766Y-105520732D01*
X179967727Y-105501047D01*
X179965875Y-105499834D01*
X179867343Y-105433996D01*
X179867334Y-105433991D01*
X179726205Y-105375534D01*
X179726197Y-105375532D01*
X179576384Y-105345732D01*
X179576380Y-105345732D01*
X179423620Y-105345732D01*
X179423615Y-105345732D01*
X179273802Y-105375532D01*
X179273791Y-105375535D01*
X179271950Y-105376298D01*
X179270908Y-105376409D01*
X179267968Y-105377302D01*
X179267798Y-105376744D01*
X179202481Y-105383765D01*
X179140002Y-105352489D01*
X179104351Y-105292400D01*
X179100500Y-105261736D01*
X179100500Y-105034766D01*
X179120185Y-104967727D01*
X179121398Y-104965875D01*
X179187235Y-104867343D01*
X179187235Y-104867342D01*
X179187239Y-104867337D01*
X179245698Y-104726205D01*
X179275500Y-104576380D01*
X179275500Y-104423620D01*
X179245698Y-104273795D01*
X179187239Y-104132663D01*
X179187238Y-104132662D01*
X179187235Y-104132656D01*
X179102370Y-104005648D01*
X179102367Y-104005644D01*
X178994355Y-103897632D01*
X178994351Y-103897629D01*
X178867343Y-103812764D01*
X178867334Y-103812759D01*
X178726205Y-103754302D01*
X178726197Y-103754300D01*
X178659922Y-103741117D01*
X178598011Y-103708732D01*
X178563437Y-103648017D01*
X178567176Y-103578247D01*
X178608043Y-103521575D01*
X178673061Y-103495994D01*
X178684113Y-103495500D01*
X191457751Y-103495500D01*
X191524790Y-103515185D01*
X191526642Y-103516398D01*
X191632656Y-103587235D01*
X191632665Y-103587240D01*
X191664636Y-103600482D01*
X191773795Y-103645698D01*
X191923615Y-103675499D01*
X191923619Y-103675500D01*
X191923620Y-103675500D01*
X192076381Y-103675500D01*
X192076382Y-103675499D01*
X192226205Y-103645698D01*
X192367337Y-103587239D01*
X192494352Y-103502370D01*
X192602370Y-103394352D01*
X192613487Y-103377714D01*
X192667097Y-103332908D01*
X192736422Y-103324199D01*
X192799450Y-103354352D01*
X192819692Y-103377712D01*
X192897629Y-103494351D01*
X192897632Y-103494355D01*
X193005644Y-103602367D01*
X193005648Y-103602370D01*
X193132656Y-103687235D01*
X193132662Y-103687238D01*
X193132663Y-103687239D01*
X193273795Y-103745698D01*
X193412726Y-103773333D01*
X193423615Y-103775499D01*
X193423619Y-103775500D01*
X193423620Y-103775500D01*
X193576381Y-103775500D01*
X193576382Y-103775499D01*
X193726205Y-103745698D01*
X193867337Y-103687239D01*
X193994352Y-103602370D01*
X194102370Y-103494352D01*
X194187239Y-103367337D01*
X194245698Y-103226205D01*
X194275500Y-103076380D01*
X194275500Y-102923620D01*
X194245698Y-102773795D01*
X194187239Y-102632663D01*
X194187238Y-102632662D01*
X194187235Y-102632656D01*
X194102370Y-102505648D01*
X194102367Y-102505644D01*
X193994355Y-102397632D01*
X193994351Y-102397629D01*
X193867343Y-102312764D01*
X193867334Y-102312759D01*
X193726205Y-102254302D01*
X193726197Y-102254300D01*
X193576384Y-102224500D01*
X193576380Y-102224500D01*
X193547315Y-102224500D01*
X193480276Y-102204815D01*
X193459634Y-102188181D01*
X193043579Y-101772126D01*
X193043577Y-101772123D01*
X192934946Y-101663492D01*
X192934938Y-101663486D01*
X192810561Y-101591678D01*
X192810556Y-101591675D01*
X192775870Y-101582381D01*
X192671817Y-101554500D01*
X192671816Y-101554500D01*
X192071817Y-101554500D01*
X191928183Y-101554500D01*
X191844940Y-101576805D01*
X191789443Y-101591675D01*
X191789438Y-101591678D01*
X191665061Y-101663486D01*
X191665053Y-101663492D01*
X191510365Y-101818181D01*
X191449042Y-101851666D01*
X191422684Y-101854500D01*
X176952606Y-101854500D01*
X176885567Y-101834815D01*
X176839812Y-101782011D01*
X176829868Y-101712853D01*
X176858893Y-101649297D01*
X176903760Y-101616526D01*
X179017760Y-100710526D01*
X179066606Y-100700500D01*
X199175500Y-100700500D01*
X199242539Y-100720185D01*
G37*
%TD.AperFunction*%
%TA.AperFunction,Conductor*%
G36*
X127638332Y-102220185D02*
G01*
X127684087Y-102272989D01*
X127694031Y-102342147D01*
X127665006Y-102405703D01*
X127633293Y-102431887D01*
X127621860Y-102438487D01*
X127621855Y-102438491D01*
X127520291Y-102540056D01*
X117947833Y-112112513D01*
X117886510Y-112145998D01*
X117816818Y-112141014D01*
X117812699Y-112139393D01*
X117747805Y-112112513D01*
X117709048Y-112096459D01*
X117709040Y-112096457D01*
X117559227Y-112066657D01*
X117559223Y-112066657D01*
X117406463Y-112066657D01*
X117406458Y-112066657D01*
X117256645Y-112096457D01*
X117256637Y-112096459D01*
X117115508Y-112154916D01*
X117115499Y-112154921D01*
X116988491Y-112239786D01*
X116988487Y-112239789D01*
X116880475Y-112347801D01*
X116880472Y-112347805D01*
X116795607Y-112474813D01*
X116795604Y-112474819D01*
X116743270Y-112601163D01*
X116699428Y-112655566D01*
X116676163Y-112668270D01*
X116549819Y-112720604D01*
X116549813Y-112720607D01*
X116422805Y-112805472D01*
X116422801Y-112805475D01*
X116314789Y-112913487D01*
X116314786Y-112913491D01*
X116229921Y-113040499D01*
X116229916Y-113040508D01*
X116181991Y-113156209D01*
X107700500Y-113150000D01*
X107700500Y-102774500D01*
X107720185Y-102707461D01*
X107772989Y-102661706D01*
X107824500Y-102650500D01*
X114589880Y-102650500D01*
X114589882Y-102650500D01*
X114663574Y-102619976D01*
X115046731Y-102236819D01*
X115108054Y-102203334D01*
X115134412Y-102200500D01*
X127571293Y-102200500D01*
X127638332Y-102220185D01*
G37*
%TD.AperFunction*%
%TD*%
%TA.AperFunction,Conductor*%
%TO.N,GND*%
G36*
X176000000Y-113200000D02*
G01*
X176000000Y-113785354D01*
X175998185Y-113784676D01*
X175998109Y-113784632D01*
X175942871Y-113799500D01*
X118739513Y-113799500D01*
X118672474Y-113779815D01*
X118626719Y-113727011D01*
X118616775Y-113657853D01*
X118645800Y-113594297D01*
X118651832Y-113587819D01*
X119081320Y-113158331D01*
X176000000Y-113200000D01*
G37*
%TD.AperFunction*%
%TA.AperFunction,Conductor*%
G36*
X116181992Y-113156208D02*
G01*
X116171459Y-113181638D01*
X116141657Y-113331463D01*
X116141657Y-113418669D01*
X116112058Y-113269863D01*
X116108521Y-113258204D01*
X116066238Y-113156124D01*
X116181992Y-113156208D01*
G37*
%TD.AperFunction*%
%TA.AperFunction,Conductor*%
G36*
X114569609Y-113155028D02*
G01*
X114566513Y-113159663D01*
X114566509Y-113159671D01*
X114519586Y-113272953D01*
X114475745Y-113327356D01*
X114409450Y-113349421D01*
X114405025Y-113349500D01*
X114372102Y-113349500D01*
X114112448Y-113349500D01*
X107824500Y-113349500D01*
X107757461Y-113329815D01*
X107711706Y-113277011D01*
X107700500Y-113225500D01*
X107700500Y-113150000D01*
X114569609Y-113155028D01*
G37*
%TD.AperFunction*%
%TD*%
M02*
